<svg xmlns="http://www.w3.org/2000/svg" xmlns:xlink="http://www.w3.org/1999/xlink"
aria-label="LastFM" role="img"
viewBox="0 0 360 360"><rect
width="512" height="512"
rx="15%"
fill="#fff"/><path d="m 163,224 -11,-28 c 0,0 -19,19 -48,19 -25,0 -44,-20 -44,-51 0,-40 23,-55 46,-55 33,0 43,19 52,43 l 12,33 c 12,32 34,57 98,57 46,0 77,-12 77,-45 0,-27 -17,-40 -49,-47 l -24,-5 c -16,-3 -21,-9 -21,-19 0,-11 10,-18 26,-18 18,0 27,6 29,20 l 38,-4 c -3,-30 -26,-42 -64,-42 -33,0 -66,11 -66,47 0,22 12,37 43,43 l 25,5 c 19,4 25,11 25,20 0,12 -13,18 -39,17 -37,0 -53,-17 -62,-41 l -12,-33 c -16,-43 -40,-58 -90,-58 -55,0 -83,30 -83,82 0,50 29,77 81,77 42,0 62,-17 62,-17 z" fill="#d51007" /></svg>
